<svg  viewBox="0 0 1024 1024" version="1.1" xmlns="http://www.w3.org/2000/svg"  width="400" height="400">
    <!-- Background rectangle with rounded corners -->
    <rect width="100%" height="100%" rx="320" fill="#E6F2FF"/>
    
    <!-- Original path -->
    <path d="M458.388744 103.06535l-2.111208 2.111209a412.389354 412.389354 0 0 0-356.090466 354.299138l-2.047232 2.111208-47.982007 7.037361v90.014245l47.662127 5.949768 2.111208 2.111209a412.325378 412.325378 0 0 0 359.481195 356.538298l2.111208 2.047232 7.101337 48.173935h90.078221l6.07772-49.261527 2.111209-2.111208a412.389354 412.389354 0 0 0 350.844433-357.114083l2.047232-2.111208 53.739848-7.869049V464.913657l-54.571536-6.781457-2.111208-2.047232a412.325378 412.325378 0 0 0-351.86805-350.396601l-2.111208-2.047232-7.869049-53.483944H464.914297l-6.525553 52.908159zM56.683384 416.995627A462.802449 462.802449 0 0 1 413.029754 61.672873l2.431088-19.832563A47.726103 47.726103 0 0 1 462.803089 0h94.300637c23.671123 0 43.75959 17.337498 47.214295 40.752718l3.134824 21.559915a462.802449 462.802449 0 0 1 352.379858 350.396601l21.943771 2.750968a47.662127 47.662127 0 0 1 41.84031 47.342247v94.300637c0 23.671123-17.337498 43.75959-40.752718 47.214295l-21.304011 3.134824a462.802449 462.802449 0 0 1-351.292265 357.625891l-2.111208 16.697738a47.726103 47.726103 0 0 1-47.342247 41.84031H466.513698a47.726103 47.726103 0 0 1-47.214295-40.752718l-2.303136-15.674122A462.738473 462.738473 0 0 1 56.42748 609.94727l-14.58653-1.791328A47.726103 47.726103 0 0 1 0.00064 560.813695V466.513058c0-23.671123 17.337498-43.75959 40.752718-47.214295l15.994002-2.303136z m452.69424 431.966012a338.944896 338.944896 0 0 1-267.163814-129.871298 338.177184 338.177184 0 0 1-72.420842-209.713357 339.328752 339.328752 0 0 1 339.584656-339.584656 339.328752 339.328752 0 0 1 339.584655 339.584656c0 76.771211-25.590404 150.279645-72.740722 210.097213a338.944896 338.944896 0 0 1-266.779957 129.487442z m0-48.493814a290.451081 290.451081 0 0 0 228.714232-111.062352 289.683369 289.683369 0 0 0 62.376609-180.028489 290.834937 290.834937 0 0 0-291.090841-291.090841 290.834937 290.834937 0 0 0-291.090841 291.090841c0 65.639385 21.815819 128.463826 62.056728 179.708609a290.451081 290.451081 0 0 0 229.034113 111.318256z m-65.191554-193.207548h-16.761714a12.155442 12.155442 0 0 1-11.451706-8.060977l-10.875921-30.068724h-66.535049l-10.556042 30.068724a12.155442 12.155442 0 0 1-11.451705 8.060977h-16.377859a12.155442 12.155442 0 0 1-11.387729-16.313882l58.154192-158.85243a12.155442 12.155442 0 0 1 11.387729-7.997001h28.85318c5.118081 0 9.724353 3.1988 11.451706 7.997001l56.938648 158.916406a12.155442 12.155442 0 0 1-11.323754 16.249906zM396.012136 535.095339l-21.751843-66.982881c-1.27952-4.030489-3.006872-4.990129-4.606273 0l-22.455579 66.982881h48.813695z m127.696114 8.316881v51.692616a12.155442 12.155442 0 0 1-12.155442 12.155441h-14.714482a12.155442 12.155442 0 0 1-12.155442-12.155441V436.316381a12.155442 12.155442 0 0 1 12.155442-12.155441h50.860927c45.550918 0 65.127577 24.694739 65.127577 57.962264 0 16.313882-3.646633 33.779333-17.46545 45.103086-13.754842 11.323754-30.900412 16.697738-51.564664 16.249906h-20.088466z m0-85.5999v51.820568h16.889666c22.967387 0 37.937773-6.141697 37.937773-26.038236 0-19.512683-14.90641-25.846308-37.617893-25.846308h-17.209546z m174.654504-3.326752h-3.646632v122.386105h3.582656a12.155442 12.155442 0 0 1 12.155442 12.155442v6.077721a12.155442 12.155442 0 0 1-12.155442 12.155441h-45.934774a12.155442 12.155442 0 0 1-12.155442-12.155441v-6.141697a12.155442 12.155442 0 0 1 12.155442-12.155442h3.326752V454.549544h-3.326752a12.155442 12.155442 0 0 1-12.155442-12.155442V436.316381a12.155442 12.155442 0 0 1 12.155442-12.155441h45.934774a12.155442 12.155442 0 0 1 12.155442 12.155441v6.077721a12.155442 12.155442 0 0 1-12.155442 12.155442z" fill="#0972E7" p-id="13499"></path>
</svg>